<svg xmlns="http://www.w3.org/2000/svg" viewBox="0 0 1115.93 155.84"><defs><style>.cls-1,.cls-2{fill:#1340bf;}.cls-1{fill-rule:evenodd;}</style></defs><g id="Layer_2" data-name="Layer 2"><g id="Layer_1-2" data-name="Layer 1"><path class="cls-1" d="M89.56,20.4a5.88,5.88,0,0,0-3.64,1.23,28.54,28.54,0,0,1-16.12,5.2h-.15A27.58,27.58,0,0,1,58,24.16a6.45,6.45,0,0,0-2.44-.55h-.09A6,6,0,0,0,53,35a38.86,38.86,0,0,0,16.5,3.75h.11a41.61,41.61,0,0,0,23.59-7.62,6,6,0,0,0,1.15-8.37,6,6,0,0,0-4.67-2.38Zm22.69,24.4c-3.2,0-7.12,1.35-11.17,4.58-11.39,9.08-34.19,31-38.66,31.13h0c-.66,0-.9-.49-.64-1.57C65.9,61.63,53.35,50.26,43.9,50.22h-.07a8.72,8.72,0,0,0-6.91,3c-7.65,9.12,13.94,8.3,5.41,35.59C35.4,111.06,56,134,76,133.94h.13a23.9,23.9,0,0,0,10.53-2.46c6.59-3.24,16.41-9.23,23.48-15.91,7.38-7,4.16-13.65-1.26-13.7h-.08a7.1,7.1,0,0,0-2.45.44l-.09,0c6.24-4.86,3-13.67-2.68-13.76h-.07a6.18,6.18,0,0,0-2.22.42l-.09,0c4.34-3.85,3.19-12.16-3.66-12.25h-.09a11.83,11.83,0,0,0-3.48.6l-.11,0s9.89-9.18,21.1-19.12c7.74-6.85,4.45-13.45-2.64-13.5ZM75.46,0A75.45,75.45,0,1,1,0,75.44,75.48,75.48,0,0,1,75.46,0Z"/><path class="cls-2" d="M199.19,30.6l23.63,74.26h.91L247.4,30.6h22.91l-33.7,97.74H210L176.24,30.6Z"/><path class="cls-2" d="M301.37,129.78q-11.31,0-19.45-4.61a31.19,31.19,0,0,1-12.53-13.08Q265,103.62,265,92a42.91,42.91,0,0,1,4.39-19.85,32.41,32.41,0,0,1,12.39-13.32,36,36,0,0,1,18.78-4.77,38.84,38.84,0,0,1,13.53,2.31,30.57,30.57,0,0,1,11,7A31.64,31.64,0,0,1,332.4,75,46.65,46.65,0,0,1,335,91.31v5.58h-61.9V84.29h42.76A15.6,15.6,0,0,0,314,76.51a13.88,13.88,0,0,0-5.27-5.32,15.41,15.41,0,0,0-7.81-1.93,15.61,15.61,0,0,0-8.18,2.12,15.22,15.22,0,0,0-5.56,5.68,16.11,16.11,0,0,0-2,7.9v12a20.4,20.4,0,0,0,2,9.4,14.53,14.53,0,0,0,5.76,6.11,17.37,17.37,0,0,0,8.83,2.15,19.15,19.15,0,0,0,6.2-1,12.83,12.83,0,0,0,4.82-2.86,12.37,12.37,0,0,0,3.06-4.68l18.8,1.24a25.56,25.56,0,0,1-5.85,11.82A29.39,29.39,0,0,1,317.38,127,42.49,42.49,0,0,1,301.37,129.78Z"/><path class="cls-2" d="M378.73,129.78q-11.26,0-19.36-4.8A31.92,31.92,0,0,1,347,111.64,43,43,0,0,1,342.64,92,42.84,42.84,0,0,1,347,72.19a32.29,32.29,0,0,1,12.43-13.32q8.07-4.78,19.19-4.79a38.19,38.19,0,0,1,16.8,3.48,28.19,28.19,0,0,1,11.41,9.79,28.78,28.78,0,0,1,4.63,14.79H392.28A15,15,0,0,0,388,73.29,12.45,12.45,0,0,0,379,69.92a13.63,13.63,0,0,0-8.23,2.56,16.4,16.4,0,0,0-5.46,7.42,31.48,31.48,0,0,0-2,11.79,32.63,32.63,0,0,0,1.93,11.93,16.31,16.31,0,0,0,5.47,7.49,14.49,14.49,0,0,0,14.53,1.15,12.26,12.26,0,0,0,4.63-4.18,15.94,15.94,0,0,0,2.41-6.61h19.19a30.11,30.11,0,0,1-4.56,14.78,27.88,27.88,0,0,1-11.24,10A37.55,37.55,0,0,1,378.73,129.78Z"/><path class="cls-2" d="M460.85,55V70.31H416.7V55ZM426.73,37.47h20.33v68.35a9,9,0,0,0,.86,4.36,4.62,4.62,0,0,0,2.41,2.17,9.49,9.49,0,0,0,3.6.63,15.3,15.3,0,0,0,2.86-.27l2.2-.4,3.2,15.13c-1,.32-2.45.69-4.3,1.12a36.18,36.18,0,0,1-6.73.79,30.65,30.65,0,0,1-12.86-2,18,18,0,0,1-8.57-7,21.29,21.29,0,0,1-3-11.93Z"/><path class="cls-2" d="M501,129.78q-11.11,0-19.21-4.75a32.16,32.16,0,0,1-12.48-13.27A42.58,42.58,0,0,1,464.93,92a42.74,42.74,0,0,1,4.39-19.88A32.1,32.1,0,0,1,481.8,58.83q8.1-4.76,19.21-4.75t19.21,4.75A32.06,32.06,0,0,1,532.71,72.1,42.87,42.87,0,0,1,537.1,92a42.7,42.7,0,0,1-4.39,19.78A32.12,32.12,0,0,1,520.22,125Q512.14,129.77,501,129.78Zm.1-15.75a12.61,12.61,0,0,0,8.45-2.89,17.78,17.78,0,0,0,5.13-7.9,34.67,34.67,0,0,0,1.74-11.41,34.75,34.75,0,0,0-1.74-11.41,17.9,17.9,0,0,0-5.13-7.92,12.52,12.52,0,0,0-8.45-2.91,12.86,12.86,0,0,0-8.57,2.91,17.59,17.59,0,0,0-5.2,7.92,34.75,34.75,0,0,0-1.74,11.41,34.67,34.67,0,0,0,1.74,11.41,17.47,17.47,0,0,0,5.2,7.9A13,13,0,0,0,501.11,114Z"/><path class="cls-2" d="M545,128.34V55H564.7V67.82h.76a19.07,19.07,0,0,1,6.73-10.33A17.78,17.78,0,0,1,583.08,54a32.88,32.88,0,0,1,3.29.19,23.89,23.89,0,0,1,3.1.53v18a25.61,25.61,0,0,0-4-.76,34.47,34.47,0,0,0-4.63-.34,16.37,16.37,0,0,0-8,1.93,14.37,14.37,0,0,0-5.54,5.37,15.37,15.37,0,0,0-2,7.93v41.47Z"/><path class="cls-2" d="M626.1,128.34V30.6H692v17h-45.2v23.3h41.81V88H646.76v23.34h45.39v17Z"/><path class="cls-2" d="M722.35,55l13.46,25.63L749.6,55h20.86L749.22,91.69,771,128.34H750.27L735.81,103l-14.22,25.34h-21l21.77-36.65L701.35,55Z"/><path class="cls-2" d="M777.11,155.84V55h20V67.35h.9a26.8,26.8,0,0,1,3.89-6,20.59,20.59,0,0,1,6.68-5.16,22.89,22.89,0,0,1,10.29-2.07,27.71,27.71,0,0,1,14.8,4.17,29.21,29.21,0,0,1,10.83,12.56q4.07,8.37,4.06,21,0,12.27-3.94,20.69A29.38,29.38,0,0,1,834,125.22a27.45,27.45,0,0,1-15.11,4.32,23.23,23.23,0,0,1-10-2,20.46,20.46,0,0,1-6.76-4.94,24.74,24.74,0,0,1-4-6h-.62v39.24ZM797,91.69a32.63,32.63,0,0,0,1.82,11.41,16.82,16.82,0,0,0,5.25,7.56,14.23,14.23,0,0,0,16.75,0,17,17,0,0,0,5.23-7.63,32.86,32.86,0,0,0,1.79-11.29,32.33,32.33,0,0,0-1.77-11.17,16.66,16.66,0,0,0-5.2-7.54,13.16,13.16,0,0,0-8.45-2.72,13.35,13.35,0,0,0-8.38,2.62,16.45,16.45,0,0,0-5.22,7.45A32.19,32.19,0,0,0,797,91.69Z"/><path class="cls-2" d="M856.74,128.34V55h19.71V67.82h.76a19.07,19.07,0,0,1,6.73-10.33A17.78,17.78,0,0,1,894.83,54a32.88,32.88,0,0,1,3.29.19,23.89,23.89,0,0,1,3.1.53v18a25.61,25.61,0,0,0-4-.76,34.47,34.47,0,0,0-4.63-.34,16.34,16.34,0,0,0-8,1.93,14.37,14.37,0,0,0-5.54,5.37,15.37,15.37,0,0,0-2,7.93v41.47Z"/><path class="cls-2" d="M936.21,129.78q-11.31,0-19.45-4.61a31.19,31.19,0,0,1-12.53-13.08q-4.38-8.48-4.39-20.07a42.91,42.91,0,0,1,4.39-19.85,32.41,32.41,0,0,1,12.39-13.32,36,36,0,0,1,18.78-4.77,38.84,38.84,0,0,1,13.53,2.31,30.48,30.48,0,0,1,11,7A31.64,31.64,0,0,1,967.24,75a46.42,46.42,0,0,1,2.62,16.35v5.58H908V84.29h42.76a15.5,15.5,0,0,0-1.91-7.78,13.88,13.88,0,0,0-5.27-5.32,15.39,15.39,0,0,0-7.81-1.93,15.61,15.61,0,0,0-8.18,2.12A15.3,15.3,0,0,0,922,77.06a16.11,16.11,0,0,0-2,7.9v12a20.27,20.27,0,0,0,2,9.4,14.45,14.45,0,0,0,5.75,6.11,17.37,17.37,0,0,0,8.83,2.15,19.15,19.15,0,0,0,6.2-1,12.75,12.75,0,0,0,4.82-2.86,12.37,12.37,0,0,0,3.06-4.68l18.8,1.24a25.64,25.64,0,0,1-5.84,11.82A29.51,29.51,0,0,1,952.22,127,42.45,42.45,0,0,1,936.21,129.78Z"/><path class="cls-2" d="M1041.44,75.94l-18.61,1.14a9.84,9.84,0,0,0-2.06-4.32,11.3,11.3,0,0,0-4.13-3.1,14.49,14.49,0,0,0-6.08-1.17,15,15,0,0,0-8,2,6,6,0,0,0-3.25,5.28,5.65,5.65,0,0,0,2.1,4.44c1.4,1.2,3.81,2.18,7.21,2.91l13.27,2.67q10.7,2.19,15.94,7.06a16.64,16.64,0,0,1,5.25,12.8,20,20,0,0,1-4.22,12.64,27.63,27.63,0,0,1-11.55,8.48,43.9,43.9,0,0,1-16.88,3q-14.55,0-23.17-6.09A23.49,23.49,0,0,1,977.2,107.1l20-1a10.15,10.15,0,0,0,4.39,6.75,18.67,18.67,0,0,0,17.54.24,6.3,6.3,0,0,0,3.31-5.37,5.68,5.68,0,0,0-2.33-4.56,17.05,17.05,0,0,0-7.07-2.74l-12.7-2.53q-10.73-2.16-16-7.45a18.44,18.44,0,0,1-5.23-13.51A19.63,19.63,0,0,1,983,64.72a24.35,24.35,0,0,1,10.83-7.87,44.32,44.32,0,0,1,16.4-2.77q13.88,0,21.88,5.87A22.68,22.68,0,0,1,1041.44,75.94Z"/><path class="cls-2" d="M1114.26,75.94l-18.62,1.14a9.71,9.71,0,0,0-2.05-4.32,11.3,11.3,0,0,0-4.13-3.1,14.49,14.49,0,0,0-6.08-1.17,15,15,0,0,0-8,2,6,6,0,0,0-3.25,5.28,5.65,5.65,0,0,0,2.1,4.44c1.4,1.2,3.8,2.18,7.21,2.91l13.27,2.67q10.68,2.19,15.94,7.06a16.64,16.64,0,0,1,5.25,12.8,20,20,0,0,1-4.22,12.64,27.6,27.6,0,0,1-11.56,8.48,43.81,43.81,0,0,1-16.87,3q-14.55,0-23.17-6.09A23.54,23.54,0,0,1,1050,107.1l20-1a10.22,10.22,0,0,0,4.39,6.75,18.69,18.69,0,0,0,17.55.24,6.32,6.32,0,0,0,3.31-5.37,5.66,5.66,0,0,0-2.34-4.56,16.94,16.94,0,0,0-7.06-2.74l-12.7-2.53q-10.74-2.16-16-7.45A18.4,18.4,0,0,1,1052,76.89a19.68,19.68,0,0,1,3.84-12.17,24.44,24.44,0,0,1,10.84-7.87A44.26,44.26,0,0,1,1083,54.08q13.89,0,21.89,5.87A22.68,22.68,0,0,1,1114.26,75.94Z"/></g></g></svg>