<svg xmlns="http://www.w3.org/2000/svg" viewBox="0 0 341.98 46.33"><style type="text/css"><!--/*--><![CDATA[/*><!--*/.f1{fill:#283944;}@media (prefers-color-scheme: dark) {html[data-color-mode="auto"] .f1 {fill: #f2f6f7;}}html[data-color-mode="dark"] .letters{fill:#f2f6f7;}/*]]>*/--></style><path d="M69.63,37.16,59.47,0h5.29l8.32,31.62L81.35,0h5.3L76.48,37.16Z" class="f1"/><path d="M88.35,26.14c.19,4.87,2.27,7.52,6.57,7.52s6-2.56,6-4.82h4.54V29c0,4.21-3.5,8.42-10.64,8.42C87,37.44,83.58,32,83.58,24.91V23.78c0-7,3.49-12.53,11.06-12.53s10.87,5.48,10.87,12.53v2.36Zm0-3.59h12.39c-.19-4.73-2.13-7.52-6.2-7.52S88.49,17.82,88.35,22.55Z" class="f1"/><path d="M118.46,33.28c3.88,0,5.39-2.46,5.39-5.3h4.54v.86c0,4.39-3,8.6-10,8.6-7.52,0-10.78-5.39-10.78-12.43V23.68c0-7,3.26-12.43,10.78-12.43,7,0,10,4.35,10,8.94v1h-4.54c0-3.36-1.6-5.77-5.39-5.77-4.25,0-6.09,3.26-6.09,8.27V25C112.37,30,114.21,33.28,118.46,33.28Z" class="f1"/><path d="M145.27,11.82V16H137.8V28.79c0,3.64,1.56,4.49,4.4,4.49a9.91,9.91,0,0,0,2.6-.38v4a9.35,9.35,0,0,1-3.69.57c-4.73,0-8-2.18-8-8.13V16h-3.92V11.82h3.92V4.73h4.73v7.09Z" class="f1"/><path d="M146.45,25V23.68c0-7,3.36-12.43,11-12.43s11,5.39,11,12.43V25c0,7-3.36,12.43-11,12.43S146.45,32.05,146.45,25Zm17.16,0V23.68c0-5-1.94-8.27-6.19-8.27s-6.19,3.26-6.19,8.27V25c0,5,1.94,8.27,6.19,8.27S163.61,30,163.61,25Z" class="f1"/><path d="M182.29,11.3v4.54h-.85a7,7,0,0,0-6.24,3.21V36.87h-4.73v-18l-.33-7.09h4.06l.48,3.21a8.05,8.05,0,0,1,6.9-3.78C181.86,11.25,182.19,11.3,182.29,11.3Z" class="f1"/><path d="M215.61,0V4.35H199.26V15.88h14v4.35h-14V32.52h16.35v4.35H194.34V0Z" class="f1"/><path d="M222.14,11.82l5.53,9.64,5.53-9.64h5.53l-7.32,12.29,7.32,12.76H233.3l-5.63-10.11-5.62,10.11h-5.44l7.28-12.76-7.28-12.29Z" class="f1"/><path d="M245.45,34.23v12.1h-4.73V18.91l-.33-7.09h4.11l.47,3.31a8.1,8.1,0,0,1,7.38-3.88c6.85,0,9.5,5.39,9.5,12.43V25c0,7-2.65,12.43-9.5,12.43A8.1,8.1,0,0,1,245.45,34.23Zm0-4.31a6.73,6.73,0,0,0,5.67,3.36c4.11,0,6-3.17,6-8.27V23.68c0-5.1-1.85-8.27-6-8.27a6.73,6.73,0,0,0-5.67,3.36Z" class="f1"/><path d="M275.75,11.3v4.54h-.85a7,7,0,0,0-6.24,3.21V36.87h-4.73v-18l-.33-7.09h4.07l.47,3.21a8.08,8.08,0,0,1,6.9-3.78C275.32,11.25,275.66,11.3,275.75,11.3Z" class="f1"/><path d="M281.28,26.14c.19,4.87,2.27,7.52,6.57,7.52s6-2.56,6-4.82h4.54V29c0,4.21-3.5,8.42-10.63,8.42-7.85,0-11.3-5.48-11.3-12.53V23.78c0-7,3.5-12.53,11.06-12.53s10.87,5.48,10.87,12.53v2.36Zm0-3.59h12.39c-.19-4.73-2.13-7.52-6.2-7.52S281.42,17.82,281.28,22.55Z" class="f1"/><path d="M315.23,29.78c0-2.74-1.61-3.54-5.82-3.88-6.85-.61-9.17-2.74-9.17-6.8v-.33c0-4.82,3.83-7.52,9.74-7.52,7,0,9.78,3.45,9.78,8.51V20h-4.68c0-3-1.27-4.92-5.1-4.92-3.17,0-5,1.33-5,3.64s1,3.41,5.57,3.78c6.29.48,9.51,2.13,9.51,7v.29c0,4.63-3.5,7.75-10.07,7.75-7.19,0-10-3.92-10-8.13v-.19h4.68c0,2.36,1.22,4.54,5.34,4.54C313.48,33.66,315.23,32.1,315.23,29.78Z" class="f1"/><path d="M337.16,29.78c0-2.74-1.61-3.54-5.81-3.88-6.86-.61-9.17-2.74-9.17-6.8v-.33c0-4.82,3.82-7.52,9.73-7.52,7,0,9.79,3.45,9.79,8.51V20H337c0-3-1.28-4.92-5.11-4.92-3.16,0-5,1.33-5,3.64s1,3.41,5.58,3.78c6.29.48,9.5,2.13,9.5,7v.29c0,4.63-3.5,7.75-10.07,7.75-7.18,0-10-3.92-10-8.13v-.19h4.68c0,2.36,1.23,4.54,5.34,4.54C335.41,33.66,337.16,32.1,337.16,29.78Z" class="f1"/><polygon points="45.74 10.92 42.52 7.7 33.5 16.73 22.87 6.1 14.03 14.93 17.25 18.15 22.87 12.53 30.29 19.94 22.87 27.36 3.21 7.7 0 10.92 22.87 33.79 33.5 23.16 42.52 32.18 45.74 28.97 36.72 19.94 45.74 10.92" fill="#ff005c"/><rect x="0.11" y="24.69" width="10.22" height="4.55" transform="translate(-17.54 11.59) rotate(-45.01)" fill="#ff005c"/></svg>