<svg xmlns="http://www.w3.org/2000/svg" viewBox="0 0 511.28 97.76"><g id="Layer_2" data-name="Layer 2"><g id="Layer_1-2" data-name="Layer 1"><rect width="511.28" height="97.76" fill="#f2f6f7"/><path d="M113.7,65,103.54,27.87h5.29l8.32,31.62,8.27-31.62h5.3L120.55,65Z" fill="#283944"/><path d="M132.42,54c.19,4.87,2.27,7.52,6.57,7.52s6-2.56,6-4.83h4.54v.19c0,4.21-3.5,8.42-10.64,8.42-7.84,0-11.29-5.49-11.29-12.53V51.65c0-7,3.5-12.53,11.06-12.53s10.87,5.48,10.87,12.53V54Zm0-3.59h12.39c-.19-4.73-2.13-7.52-6.2-7.52S132.56,45.69,132.42,50.42Z" fill="#283944"/><path d="M162.54,61.15c3.87,0,5.38-2.46,5.38-5.3h4.54v.85c0,4.4-3,8.61-10,8.61-7.52,0-10.78-5.39-10.78-12.43V51.55c0-7,3.26-12.43,10.78-12.43,7,0,10,4.35,10,8.93v1h-4.54c0-3.36-1.6-5.77-5.38-5.77-4.26,0-6.1,3.26-6.1,8.27v1.33C156.44,57.89,158.28,61.15,162.54,61.15Z" fill="#283944"/><path d="M189.34,39.69v4.2h-7.47V56.66c0,3.64,1.56,4.49,4.4,4.49a9.91,9.91,0,0,0,2.6-.38v4a9.35,9.35,0,0,1-3.69.57c-4.73,0-8-2.18-8-8.13V43.89h-3.92v-4.2h3.92V32.6h4.73v7.09Z" fill="#283944"/><path d="M190.52,52.88V51.55c0-7,3.36-12.43,11-12.43s11,5.39,11,12.43v1.33c0,7-3.36,12.43-11,12.43S190.52,59.92,190.52,52.88Zm17.16,0V51.55c0-5-1.93-8.27-6.19-8.27s-6.19,3.26-6.19,8.27v1.33c0,5,1.94,8.27,6.19,8.27S207.68,57.89,207.68,52.88Z" fill="#283944"/><path d="M226.36,39.17V43.7h-.85a7,7,0,0,0-6.24,3.22V64.74h-4.73v-18l-.33-7.09h4.06l.48,3.21a8,8,0,0,1,6.9-3.78C225.93,39.12,226.26,39.17,226.36,39.17Z" fill="#283944"/><path d="M259.69,27.87v4.35H243.33V43.75h14V48.1h-14V60.39h16.36v4.35H238.41V27.87Z" fill="#283944"/><path d="M266.21,39.69l5.53,9.64,5.53-9.64h5.53L275.48,52l7.32,12.76h-5.43l-5.63-10.12-5.62,10.12h-5.44L268,52l-7.28-12.29Z" fill="#283944"/><path d="M289.52,62.09V74.2h-4.73V46.78l-.33-7.09h4.11l.48,3.31a8.08,8.08,0,0,1,7.37-3.88c6.85,0,9.5,5.39,9.5,12.43v1.33c0,7-2.65,12.43-9.5,12.43A8.08,8.08,0,0,1,289.52,62.09Zm0-4.3a6.74,6.74,0,0,0,5.67,3.36c4.11,0,6-3.17,6-8.27V51.55c0-5.1-1.85-8.27-6-8.27a6.72,6.72,0,0,0-5.67,3.36Z" fill="#283944"/><path d="M319.82,39.17V43.7H319a7,7,0,0,0-6.24,3.22V64.74H308v-18l-.33-7.09h4.07l.47,3.21a8.06,8.06,0,0,1,6.9-3.78C319.4,39.12,319.73,39.17,319.82,39.17Z" fill="#283944"/><path d="M325.35,54c.19,4.87,2.27,7.52,6.57,7.52S338,59,338,56.7h4.53v.19c0,4.21-3.5,8.42-10.63,8.42-7.85,0-11.3-5.49-11.3-12.53V51.65c0-7,3.5-12.53,11.06-12.53s10.87,5.48,10.87,12.53V54Zm0-3.59h12.39c-.19-4.73-2.13-7.52-6.19-7.52S325.49,45.69,325.35,50.42Z" fill="#283944"/><path d="M359.3,57.65c0-2.74-1.61-3.55-5.82-3.88-6.85-.61-9.17-2.74-9.17-6.8v-.33c0-4.83,3.83-7.52,9.74-7.52,7,0,9.78,3.45,9.78,8.51v.19h-4.68c0-3-1.27-4.92-5.1-4.92-3.17,0-5,1.32-5,3.64s1,3.4,5.58,3.78c6.28.48,9.5,2.13,9.5,7v.29c0,4.63-3.5,7.75-10.07,7.75-7.19,0-10-3.93-10-8.13V57h4.68c0,2.36,1.23,4.54,5.34,4.54C357.55,61.53,359.3,60,359.3,57.65Z" fill="#283944"/><path d="M381.23,57.65c0-2.74-1.61-3.55-5.81-3.88-6.86-.61-9.17-2.74-9.17-6.8v-.33c0-4.83,3.83-7.52,9.73-7.52,7,0,9.79,3.45,9.79,8.51v.19h-4.68c0-3-1.28-4.92-5.11-4.92-3.16,0-5,1.32-5,3.64s1,3.4,5.58,3.78c6.29.48,9.5,2.13,9.5,7v.29c0,4.63-3.49,7.75-10.07,7.75-7.18,0-10-3.93-10-8.13V57h4.68c0,2.36,1.23,4.54,5.34,4.54C379.48,61.53,381.23,60,381.23,57.65Z" fill="#283944"/><polygon points="89.81 38.79 86.59 35.57 77.57 44.6 66.94 33.97 58.1 42.8 61.32 46.02 66.94 40.39 74.36 47.81 66.94 55.23 47.29 35.57 44.07 38.79 66.94 61.66 77.57 51.02 86.59 60.05 89.81 56.84 80.79 47.81 89.81 38.79" fill="#ff005c"/><rect x="44.18" y="52.55" width="10.22" height="4.55" transform="translate(-24.33 50.93) rotate(-45.01)" fill="#ff005c"/></g></g></svg>
